<mxfile host="app.diagrams.net" agent="Mozilla/5.0 (Windows NT 10.0; Win64; x64) AppleWebKit/537.36 (KHTML, like Gecko) Chrome/130.0.0.0 Safari/537.36" version="24.8.6">
  <diagram name="Page-1" id="m5O3xJOyfBriNvPAJn01">
    <mxGraphModel dx="1221" dy="608" grid="1" gridSize="10" guides="1" tooltips="1" connect="1" arrows="1" fold="1" page="1" pageScale="1" pageWidth="850" pageHeight="1100" math="0" shadow="0">
      <root>
        <mxCell id="0" />
        <mxCell id="1" parent="0" />
        <mxCell id="wAmVWnJDsuu-sDCw3aJy-6" value="CI/CD with GitHub Actions to deploy on Azure with reusable workflows, environment, variables &amp;amp; OpenID secrets" style="text;html=1;align=left;verticalAlign=middle;whiteSpace=wrap;rounded=0;fontColor=#FFFFFF;fontSize=24;" parent="1" vertex="1">
          <mxGeometry x="490" y="182.5" width="330" height="115" as="geometry" />
        </mxCell>
        <mxCell id="swMk-PQYHyOFZnCrI2o2-5" value="" style="group" vertex="1" connectable="0" parent="1">
          <mxGeometry x="490" y="160" width="680" height="160" as="geometry" />
        </mxCell>
        <mxCell id="swMk-PQYHyOFZnCrI2o2-1" value="" style="rounded=0;whiteSpace=wrap;html=1;align=left;fillColor=#67AB9F;strokeColor=#b85450;" vertex="1" parent="swMk-PQYHyOFZnCrI2o2-5">
          <mxGeometry y="-20" width="680" height="180" as="geometry" />
        </mxCell>
        <mxCell id="swMk-PQYHyOFZnCrI2o2-2" value="" style="shape=image;verticalLabelPosition=bottom;labelBackgroundColor=default;verticalAlign=top;aspect=fixed;imageAspect=0;image=data:image/png,iVBORw0KGgoAAAANSUhEUgAAASwAAACoCAMAAABt9SM9AAABEVBMVEUhISEpOVAgICD///8AAAAgif8gjP8giv9AeswoNUggjf8hGAAiIiIaGhohIB4oN0whFgAhGgAKCgoYGBggHhm0tLQICAgghffx8fGnp6cSEhLPz89OTk4fGg1Aes3h4eF9v/8hHRQ8b7dycnJ5uP+CgoIhMUdkZGQ1W5NZWVnAwMA+dcI6aq40WY43Yp/09PSWlpYvLy8wTXcvS3NAQEArQF0aEAAyVIQgSXs2NjaQkJAlLjsjKC8hQ24gccwgfukgVpUsQ2QhdtYWAwB9fX0gXaQgc84gY7EhO2AhNlMgVJEget8hRnZCXHgwPEtzre1onNIhCgBch7Zklco9U2tahLBMbZAqMTpAWXQ1RVhRdZ5Ng9EOAAAYo0lEQVR4nO1diV/iyBKGECCQ0ASIgGDE4HgwHHIIqCCXMnjM4c7M7rx9//8f8qq6E8iFIp4Pqd/uCLk6/aXqq6O7g8ezlrWsZS1rWcta1rKWtaxlLU8WQhQmhHBvfS/vWIiiqara7XibQ5BmqKvAV4289W29Q1FUUWq2K/misL0toOCffKnc6IhrwCwCKtQs5wWKUjFfqqCUSgAcglasNLriGi8mRFObh4hLsXRYb0ZDM4l6G6BriFipLqnKW9/o2wtRpTbiUSoPo6Fo1GuVKGDnrVcAymLFK35wuIjaKQMSpbY3ZMfJhFgo2kC8Ss0PDZfWBaiKleE9SBl4eVH/StfqR+UuRasDVIfe0ANIGRZZB7gqHfWtb/sthFOj2PkFoWLqheDWtY9ni0RrIwstDhXTLjDbUkd765t/ZdE6JaHYfhxUKKEmnNdQP1QipDaLj1YrA66yIBx+pBhVrEOHl4IK0RoC0OTDEJdYBp5eFitgLi+YYveDoCUeCsXh8lihclWEYudDoCVCT5sPRaEPoXX4MdACvcp7n4gVQ2v1LVFsC8WnY0XRyksr7hPVxvaTbVBHqyKUVjuCUKKCMJxhFXXUZB4Q8/GhknC4yokikYqCKWxvNurDZmhRvxgNeYdwggmuotBYYbTUilCZYRPK0yry4cMVGjzY2y7RMnNjenB0KBRDK2uIWkPIm/QI+lqhAJQaD8EVooXnYr5SsqDdFvLaiqaJpFu0ENahUG6pHi/CkG/oEERpDT5q/DG0ihZKG11V7IAvNWFYEtoraohghOaEMFTabioeoqgerOpBWg3oNBvtQxzXASmVKuX20AsbQ+0ippJ0hEfNC0MTWpCPd1bSEJWmxQi90aKgUBsiGi2ZlsuMlCwCltdmBVKGiXootM0esSyUxDft1csIp+VN5IxaIeSNfnKqVKHY5CvlOmhTBwR8ZRsoCscSi03RUB+tbiYtQDwvNFcwkAd2L1m62RAqM74hcrNUbkqiqmo4y4HgjAdNU0U1VK8cmgrJoJ7Wq9RnkK+OcIqF3Wk3K2ZyVgAmF/ohmmp2eMRrBQs5frhyqmVXLAdYi4kDLFDQ1VMt1cZYNjNcVOxmSEPbVWMtuyu0EvziAgpasV4n2hYqK6ZaEGO17VF6UXh8+G0LHShaRaG7UrEWBO9FG1R6UPpIsQWl9DrwHFZqJNFpPbSTjyYtxQtBl+06kE/nVyrnUUtC3W49deHxzMxJJTvBA+qrlfMQj+CwwuZS1SisiJVtaIGK1lfIDpWhQx/QCJdxYi6GuFwQ8m5FLQtlqxVi4W658Qbx0EF/UaG4QtPAxZI11XlKJQqrYjbVgrg0ujJxKac4KKu5rGLRUMs2T2KlSIuE7OE7ht3L0ozidrXVGedRHFHWk2oFWt5uh+A/VgYsre3g96ekKC6pk1BcGc6C3tlC0uZTgm6t7iCtFUoPVbszhMjoCXajDLedZZqVGUAU7SSzXOHPEEcBECnQuyp2KBYFK8U8zX05nWuosr0ytWXVXp8BzXoCWErUoVkVobEyYNlj0mc3QwBrVaJSJ1jPTfCrBJajTPqkKNJZSVwtsGwE720Wi8t3zhnjAlgrQ/CO0AEi+OJzRvBLlfPfqYiOUQYMjJYHq+RyuZWp0YAqNBx2s3RRxWWkaJWq8M7BvqfEDs5BabTqlZnm7cx8keGfUPyz8Tvm5aviDN10AVhmSWdPiKOsvFIjFqQr5J2jhktO2XNMx4GLlYXyymgWBlqOceTicpNfcAKhfbx2teZoOat/WHhYqv6n1h3TcV699keIprpPvXsOsc8EpT3MLzMYRjpFexjyyvzOaaLWOR8MvnaU2Iu8ZQIrUI43pwwFofnYPhIl74T9VQd31NhJLxUOBwKBcGo0UF5iZpjLTCFcHyF4H4cWgeDdgTpS1mslO0Q+SYWDfr8/iP/4A8Gx/Pwt4/i9Y0FT6FAQhuIjxt0VD2Blv4qXju28zui91r0NA1Dh/qjXG/XDAYCrf/3sykW8Tlpmbx0oq4sqFxG9RTesnjJg+zhR90GhAsHJtUylO04BXOGv8rO3k58N8LBXY9FPuLJiuNCbxBSxU9l28tVrWqG2D7YXnngMyyMxcQC2GD6JPXdD7WlHh5V8vlJni5iizRKucpLux4vgm9sqwpz3GwyF4qtMwCXdFJjgiUw8nGH0RL5Oga5dP7MvnpUKomyBjtHxUCOPbxJrhFjoYsWMEFxmoXaGdAHdoeu611ebUir3Av7gFTyXmKbFpstjun2/P/XcWTymvwweQah36qBQuqZFQ/RNYkKxVK43Qx3JdA7phJqNMt0r5Nvz3odUFF6l4qCdB/yBG8BKnKRSk67Bkuo1bB4/syFCqFU0sbqI70gx1hjim+r0tyEemtmHNPWlYaV2c97yTXCprxNkiX1/oAdcHpuAQwykbgzmEgeBF1Ctiq5aiFapq0IoPqPrKC41BFurW/utdYrFfKMZvWeha/OVUh3lCoxwHwCSMb6C/750GFMSRHH8zM9rqlre0DAv5D1aSLAmLuDVynam1jqCfc6gg7HKr6JYsUkg+AWDBDEMLA8xQxACUsqVqFq3z+1i1Olk0KgXkhYVUuKiCQdcseTMTdW2a7gwPQlc4evk0PKtP3CO4ABYfqXbQ+W6vUb0FIgogs9th6Yl0lGc162p1tXhrmV5ogj2YTSLYpXslvtCQlTD6SFYXUU+72NAOkFmRzu8eu5Iz7T4PgpaRRC9yjQcmFNncanumLBass7zeFHA6fWpz6NgEY8mjhGtMdifPPIHTp49egFVMmrxOFtZw/eH5Bu4yh7+b7vXWdyqO1MjBAV9pSEwDBwsYEFA2rn1+/s0lggGBs/+zEhnyunAUEUV+DtP10WXD3EtuWuG51K/nynWUiWxpcQJlifW7QVfECyPNtwuzjo6VIAK6nn2km6h1HAtHTgnY82wqrzevFunGcqDcJCR1suYIXt5lu4R22xtpgbJTL3d8BLVffEhaKOzgmUQ1it5QrwNNehPdc0Ef0sJHmulYuoFCN6D7ySYekBQrUNa3MD8TyPzej0XLDDkx9YOnyLW0EGa0FrWV8iqaegQeJGMC1d1MZLHsnJbfLCNeWBFh6/7jiNzUOq/waA0MBZp++gWb5+9pkVF6UzRqgOnd1WDqYjiqslzwEJH+KqvoXGkO6N9mT5pEnuBdMcQLWqgFWrge6ij+EsV+NsV3ms3tBAsJ8GjXr3yChSwwyAm0iJLpE+M163LoFipuSzyVNG8Rgod9VZoTaFyWMHfYHDtvStYIYrV666a076yEg1RbSWa4POXaMzNeqeRe6h5mNff1lN0z4jdwAqBATty7hcXLP4FrgAtUVGmXKt2UhCZvuS7BzVIbfL6axJD9OV09UZzzuCfC1g4KtR+/Vc50LKyH8vKU6PDsjJse0RZeQlrULolc0E9ii8XWxQs+rLg4VtMmjEGLES9OKLEWH747AMWNiEaaEfFXFOfN6xsj+BxQCgfepsJRiodnghOrlRRlkVxnw6F+U+okhMNt7nbo6LGZFFdfm4EwbpysRF6JFghdAmVN3tlt6awQdZgfzS6DeqDrKhXiiydjHu9yUnXOUKtyfs3k1FvfKWJJgt+ZMNgiqZ3ws8Ha3sKVjRUpuOMbzcjksgn/dnwfTCQGlBwYvu9cDgQDAbC4dGV6DwDdsG+4KSrEcn9wg83PCzOfsTiYbDoT1gIFeltp62p8kkPSR1wCY4GMYqMfIMABkCCoHZj2fQwFXWEuoj7cGrE9fL0pilliBkqdOTmIbBC0XZe2C5F3/63ZDRZhsx5fL6viexmaJgavh3f3AwQGToGpIvS7UO8EegNbgbjPh51srwXJ2r3kP64VTR0nzfshEI4zLqdb76P38CKIViyQdixmzBQ1zlQOPD+9W3AD7qlH8jF8GtvX4YMRVRvgk8cvdZ/0qlYOSxuu6Y7OEuickh/IOudQEXBmg0VKvugOyNNf9AaJNz+8LmOiDgI+8PGCCMROzh6/aQAlqhSA6h+e15erIToePVh6L1AxcACY2O9lrFeavhnNaaIo6BRhCBdUKWJrmZEVDXE9Yk1VaKpnXp9buykSMN6k7w9V80kRhl+QjWGdACQc/3e5QE4vH3QJmYkKg5W65gq0mQgYtJ9++QYkWj3aCdRXmyy63JCwQLbuxZFUT6h9WYaP8mTcLgnir1gYIAspf7Vw6IX3YdMD9ZJwDOuzMKZxQTB6mP577Y3Ho+CwYmoeDoqAaxA32LqDajPYAwySGF1Ve1ImuKB48NXijyaEdoHEQAruI+FZQyg/Fi46fTDg79gS+BWItp5mAVddJ8E2KX2pVss5MhIcC9WKHynQsGSz2/DEIVibn0jXgFPjRAr0DEKVpAKgKVgZSfVD7KAQvygYCmQ80E+OLkF0xMJjvUAVugV1ZOwvz/pgUxw2Aerg7iPBl/yl2D46wc0Q4X+QrHYAoIfyUQDtAJ9WmqWJ4HA+C/gfvGvUTBwo6pXdJyfRhAyWOPHI3gKFgqNSa8VIt+GRzS8UTqUynEflrv6Mk4OhMiUboBYov8yVvhu30xnBssj3waDoFokds2qITRIZYGosk8DeI/W3acpoaIgzb9UjfedwmUBCwf2IZxXPHQDkccA0ImuPTH6BZCkMGroE11mcj1HLzmO+38Ay0PDq15HVjVFlaVe2FR2IAq4QUhwRFXRIMlGn/jVaoWROJ+MJ/nMtKcJPmNvLhOPc7Pj4wmXO+Jqp6fSfWhF4othySUXPHBhsYJFRAAoGOgNrq5uJkGMH2apmbKPhejU5OTqfDxCnh9Yhq4j/PHZRjab3biM6BBlChu7+kfOw9FKYeSyWj3l9M9b1epuxHlH/KbPd+CGotHQ1kZmERC42mY18rxoWcHCkUSjwIdRV08yZfzaPs4Q1CNU8I2W4l/8+LNPl/RlgqM3C5+3IghUPMMMlItnfb5ChFVYM7s+3wbvrLY+BBa/4Tt2wZgJNKVfkePhhjb5BSBYXGxggW5d9SlQwUA4dWKteivqmIb5COZo30Lu/O4RQHOUzqXhT47qE3cKHwsJ/HCW1e2KgcVOYWA57+gBsLjEka+anLdz1hSXhLY+vyxYOHHqfPyl3/8y+arZIwMidk8moz6kkdfWwYz4LmrU2XGG9xQ++y6Z8WWquc0McHUm6ztilM09DixX5srswdOYQ0Z4/SN2FudJFHJZpoJLjhU4xQkWrm+VYzH3sTCi0n22elzkFPQqK/ER8GMJ/gCQkfAWge05SeIyOV8aeYpzB2vWb9ZNAyyD5yy3BrtzPrrftA/a07UpDk0xg4f9CZ43OMtwsJz1WuYLLIKoC1gUlPnvLOaMfdPLU3rIcRG94QS7r2QyyccljsvwWV+a5/lkxM0MOfAMyYxhOcmMDhaPEo84exDZQlo0aSSXSLJj8ZKAZDrJJ/kIPCJoPql3IoHbeF0dI+Cv4aZADD9Bv/CJh52BC1igParUhfTHRbOUVkvpSq0WTm2c7o4c48NmzGrgGDneANmMg9lsAI/hl62Ii2ZxHBzI7BY/7WUoWIWDz+l0tlpzhB4c0Hv6M9qaxNrh+MJmFo895llTR6ypRBX/HlMt4wsbOTjkjMPLJQobe8nMHp5zmWS7Dz7n0rnNg4ddJw5YWMESu4NRPxjsj8YdO1yk9e/Pux87n378+se8DjV+BkbIGxrPNJppQI738FMvCXGECSxON8NEwVAUPAU+IVg5dsbRrp3TOOnItwkn6rToiXDTy2/EzU3F6SW2sC3AV3fTBdAl4LwjKcs2fE5yEjfdvTHPbUxFThnZn46HPAgHaG3BHwhPrNykdn/t7HyisvPj28UUSbAzX5U3KRZ+OM5mKVizx11gmrXF63IwHyxferNKe34Zt1piHOh9K4HPhjbCRRCTz1U8+CxjbiqxkU0zsCgYm2dVBAgIH6+Q9uXY9fcy9JnBFTbT0wdwD1g9y1xuRcJB/UAYhA7o75sUqPUbkdqhAn9/tgxdSuYwRtB5hwpwNcfzFCyPwVm8zllZQ3LzwdoEiuMz0J2jUwtvcUBKuSRqEPNzlCxrPNBT4oyXGD0maVMcPQrAQjDSp3w8zlcpxuhNfXt4yt5U8/f4OM9DtPwQWKplFimRcCA1NbhSxeubPgTzqdnPEKuI1c7dt+8t6fffiNqvC70HXBpvntF6jQoaI5dhYBneEP1hPOuzyDywkADBQLL2sBUP2eRROWiolYCvaSmB+gx8BE2gN5TQAwOd6WCh9zyI413ip60IglXlKfCghjXaCDbHLZAWkC4okJEs00lu4TFEBoRAcngDaPWNfIf8QfP790IjHFFa5G7n085/WwwsCcCqsab4NAUBn7sNLHokgpVbQLMOqJ5mCuhkjT4gaGhS8FhqeqiFX89MtEbBMk5gYEVO8S4QPE/yDDFGsPYyswPiVOEQqQVSI1oq1rMaOn1yNr9BhK9hw0Zbv0CxvrcMjFs/Aa0/9EiqWacRE1hH94G1CGexoBTPtKQ2SO/Yc9QGzA2YrsxUzwWszOVUO/H6AMse0ptHR74QidTglnO78YWSbhwsDN5qbLlhfzaQSoHECbl6PetfAOd3a3baxQ+kLeMW8d6xtcTe3l76frAKeipznzfU0x3eFGlgyBrXTQj/wpEcsGK6Zg4unWAlQXGqDAhUsmxyChbHwPJktmiKdsnPTThNop4EwNogfyHTKd9TRCTwlazO3vp759Pdhek07RuEECw8pd5Q97uZODzu+8FaIHQwg2WkiUhJ8L2GXF07Qm7yIFjcA2DB1c7ibC9aZDxu0yy4ZWkTE9tsbRG0sMbnD3y5VuQbupiAtFpgXhyEn1hMpuVQtXVx92nnm2V4AlXrO7VDZvbG9gXBMoLS+WBx1MxMZoiHpqtU0hhL2TWLm6U7U7AySFQMLIydnWZIqb9WxXxtocqPeIOTsQKpPs6oEcmfu7susPivu++KdhIOfhE96j93d+D+vluirtYvAz4agB7E7wfLVKJZECzoRQ791bTFafhIBR4P4ywdKY85N5yClTiY1h6wwc8uYOGJ/NYROsUFwPKI17cYVtFXhqhgcDt/t5R/dnZ+tbSrMAQW5A8NRXesy7daP6f+EM0lp+cmnBtY0GXJHSwKEfQG9mcKNrBwQzY5bZQD46MhJ8oR+hQWkul7OQbWFF0GFgcRbJqpDG64zDjA4iJ4b3ipuZUfqyjy+aQfDNC6sfJtZ+c/ivL90w7kNF8RLI78oGGodd0aatY/zFVivOPLHfOJCBfhJTvBI0IHcYi2OTewKJNkYF8mnp2BBTkjDTF9u7OnzbIqCCchoMSOV3malBbwWC5Zw+Bq1pQBFg23LvGQONwkIOkE6xirJRiyLggW8LUod68mAVyl0vr+HTBQ/vzb8qhgoBMRiP7bb2Co/1jMEFnst76FP6MhZuG0dox0YomzPOiQcqeZxJZkeEPODBYNPaVMZCtHo1SJ5oYHiYRUwHB/5tGp073MzMqsuSRHU6OzWiJRO0MOMzdlaBYF9DKRzBTS1JU6Qoct38ZxgrrEwj31WbsQjKtwhQUbwMERaXHkD9yo+PkC9OjvlvlotM2prjG0pnQicQZYGLfXqG/OYQToUs/KHPjYbt/GLDf0pXPooXK1yLQCSOld/ybRawIULHfGkwE7j7kpHSx4VpjfpLM0iYTbsYOV3DAu8PlR4xt0wpp5pihSVpiNOmv/ADbmcuAFRKV3Lf3WJQ+/ZWQyR9ldWoGgbEEJhUUyGDjbwaLUy0rSvvTlMd0Afdjc1LMhLjGLOOOfzWVinhWNOf6MXRviSnQis6boEazqcMCKGEdVvC90jyyWQDQLicyeXuLYeLigJZn+EJwXmcLcWZ+0pvXZ6jHsOvnxCQKt6fUwq7bEEgn+dHdzY/OsUDOKatzWFguvuURit3p2Wahx3PHWlqEqXG1ri9abPHHu4Kx6kIhLdEPioAq+fLda3a3xnCkHwcvVTGwPX1F/+UjhrHq2e6y3mjGagkjBaCsT39qrnh1I7BnCiSxl1m8mnty6hMZO+UVGK2kNmP4DGKUgPu3IWNkjROyO6HA+OwyD0J2fFwwecvEb3OOPluXyEaw4xk3PJxIxYiQuk4xnkHVh06y/089A7nieviEB5kBPsN28+Vx6tu72E3G8+HQ7XIs2Zb5+BA5JTL9ErJ+4iEtj87AypZBsitFYlcWYGLtJBc2LeWg2+OPbRavVuvjzE4OJlXkH9JISO6ELAr5MJr3UbMIMFaJhKr3z49fPX+AHsQLxbmYRv5WIVwiSPnstaHkHIGn9lxZKWYT6442Xh7wL0ci4H8B3lwb646514JBrff/JKqWf7r69pynXbydEVPe/jscn+7MX3E1FaUn//vP3f3//ab3kgtf/L1E0UZwzBZ0oWktVVuiXUNeylrWsZS1rWcta1rKWtaxlLWtZy1rWspbVEW4tC8sarEfI/wAP4R3UZYOl9QAAAABJRU5ErkJggg==;" vertex="1" parent="swMk-PQYHyOFZnCrI2o2-5">
          <mxGeometry x="9.629629629629628" y="15.600000000000023" width="231.11111111111111" height="129.42222222222222" as="geometry" />
        </mxCell>
        <mxCell id="swMk-PQYHyOFZnCrI2o2-3" value="CI/CD with GitHub Actions to deploy on Azure (with OpenID credentials) - build with reusable workflows, environment, variables, outputs, secrets" style="text;html=1;align=left;verticalAlign=middle;whiteSpace=wrap;rounded=0;fontColor=#FFFFFF;fontSize=24;" vertex="1" parent="swMk-PQYHyOFZnCrI2o2-5">
          <mxGeometry x="314.54" y="6.25" width="355.46" height="127.5" as="geometry" />
        </mxCell>
        <mxCell id="swMk-PQYHyOFZnCrI2o2-4" value="" style="shape=image;verticalLabelPosition=bottom;labelBackgroundColor=default;verticalAlign=top;aspect=fixed;imageAspect=0;image=data:image/png,iVBORw0KGgoAAAANSUhEUgAAARwAAACyCAMAAACnS4D4AAAAdVBMVEX///8ze7YYcbHg6PEpd7QhdLMvebX1+fy/0+bP3uwodrROib0Rb7CGqs40frgVcLHs8faZuNdpmMWDqc5FhbtdlMOyyeB6ps3m7/Y8gblwnceMstNHhryfvNlWj8Dc5/HE1ue0y+Gfu9jW4u6nxN0AZax3oMn7lDIvAAAM3UlEQVR4nO1di7aiOgwttU2hICCgAj7AkfH/P/G2PHyM3jmU8hDHvdasdUQH6TZN0jRJEfriiy+++OKLL7744os3AIvPZrFahmEQBOky3K2KfBGzqZ9qevhWcTkmBFNOOJEAQjinFMN+vdyc/2GG8p0NghUwXgAAOOXG8XCe+ikngL9ZO5TDS2LuKCIc09D8pwSImQGl5O+83BGEjdCa+pHHQrZ0WzPT8EPt4l8QHyvgXImZmh8KO3/qZx8Y1tFTE5o7eriz/WR6zqn3gwb+OzjfferkYkveVWpu0uMWUw9jEJigS00JesymHknv8NdYa0bdQPBq6sH0jJ7EpgI9xlOPp0/saH/UGHJtYU49ot7Ajv1yI0B3Uw+qJ2RGj1Pqyk4w9bB6gfV62a0LfvwAlyfvslhoA7KfvVrOe1c3N3aSma8mcr31wg/sGLNmx+rL83sNsGesdzJjUG6EVl5PPcTOYNEANvwRNJx6kF2xHspQ3cGb6Sp9hYfnRrAzy+0Jazgjfg+Iph5oB7BoYGXcgM9Q7SxHUDgVcD71WFWRjTOpJGA/9WBVcRzcit9AD1OPVg3mKJaqgTcvR9kdkxuDzCr0dRpP40gAvOMKNM4siezPZ7NHMuMN+JuJjlVsIyCESnBC7O3m5qrmo2ocCfd9tI5/Sj3MyV12DQChHmzrTJpgZMERBmszMSUNrJTT19lYMpNGyE88rsYpv/o4NSslTjb9S8QcOD1axWjO8Q3eYmpihDZJXgvNHQgffVIJ8MkdwUUwbNhTA5BMzE1BRlwTqMKZdKOGva/YSNApt8+zZAI1qwCynY6b/EdFPDHAnowb862nlARMtsNnTmKe1cAnirRb7z6nJCbSyCOGPDUwjRvIkhnIjSBnOQU5l/e24Q3IZQJuTqMHZ7qBTJAIF0896LaYgpyZTKpJQjrnmUwqQY67G7tkbczNOU0Ap7Ac0xO0ZiM4JYB70Wa0ZcR6PoJTA6g7UklfNhdt/AAOo9SsjZdH0iuA8+Gz4Vgy9TC7Auh+aNU8M3X8AOAD16zt5jmrKgC1B425j5XWNxAIHjDE4ztTD08TMGA56IAVL2MBD7Yn8WvOKqcGHao6Ip23yqlABqqs2X8COUPVOw5TnDk6+BBRMPYBKqcEHUArfww5xgAWPf4Ycgya903OPOMVLwFu3yGez5lWwqD37e74H0SOgXsN8GS7qcfTK4D2t0TPLn9LqJ0jetvz8y/a3bXeDz1ZrIPzedTIgr4elhGZ3V+kouxR29vdNNGDTi76mVHAKfVoFCwPq/v7/dm6C+p/WmjLv6vLzUUrMxIM2akXY8cNdkVeNXw+3wkirB93CfdpJK7ZGt8oqHFXv6JWFNOTFjXM7jgJAIAIWYHETnem9WA174vvHYTSO3a8BVoSzEydeUwuiKEdj9yf2dErAYjVO3PIps5CVozE3R7M86vm4A/ksPuX5IgkOb4WOR4rHE8wvGvx6FQjDcNXSv6T9WfYI0JUinzBTv+bI/0oOdndlgY2peTwU5tx/S8cFIr/jv1li5toZMa1Tows1QqO0tXmNoHMluSY8eb62kWhIMeomyMLCbxvOV6qamHryO1bb+/LNyoFAIIcDuD4bXauuydyM7vlDwjJwbT+/Ja25JxWqNlG5SvkSHKi8kfh9mFTBKU124vB721X/L3dbMKq5gLALjabtLJ2BIJis0o4GK5toF2037v+Lmqh12lXa5621cUvV7itJQfKaVCSE5u/G4UMhoXibCF9c6E2j7K/5haHiGUZQysuYw5Z+T6T+pwEPlpkPjrRxzXB8UfJ77qGOLTeF9cj53ceO81t1lJycHyiQBYowNhLTBQQly2RedzzHdoAxmSFVtQgGTvK9y3kSj1uRR6mF2Q5RiQkJ4kiITlJ9POjA+k0ryyvLTea5OB1nRGF8xg35PAClZMaaGZR10eFR4iLNvL3kruWtuCj/E8kEXIE8cKRMkLXMkVG6hxx41Y6p2MNAGtNjS451PHLRhdAxPxqyPHQofoUSZHhslh4orxgtaKmsYmPqPLA8HmD02bPCJvMMUq11dJaift3SXNXyVLSJEdMF5n2ww+IQk0ODq76wj0KcqRB8/zGrPEDE9LCjo6MolBO86YWA1Jkgxo5Roc+TZaKY6xJDkCpYj12okZNjiPsVvMRYYFYQORHmwQY4Z0QcvRRvAn3Yj5R65o25KAtUSTHUV+ar1W8P01yxLz3CYgRu8aVnF/sltABLpOPUw26vJAiIhzxst1BnFJBDr3eTpkcrOwkq3W70SUHbBQAPsv072fJAXwl515yhPtHqOeEGUodLclRTxZUS1KCV86CAjkGzizPFuO6koOTJqcXjgu3IgfHzU9GNz7eHUqmuGctnFOzoUa2QvoUyVGuk1VsWvLy/irkCJMhbBHAlRxhrYrqU/QgrZUkR/g31UIbgJ2ck1+tHPgFCe1dNxJxzrGnSo5yhYRiCr82OcBRwUo2GnIEE3spDsKPKWhFjviQ6QhVA06BIuHnhFjyJFiiPPMdSZXwoFO4klO0C0SBocaNapWiNjllB7Ky/1BDjsEzFLrcvbCY1DpHqhprDyTJpZdHT0ispYzoJJwjSJi/dklyKEvBKnKohYJWMTMhh0rkqEYMNMjBftWwKqmnsifGSrONEBpyEqZI3EY8vetXxpOuxVrLlwZKypFQpDFDfiinpVhFsBix8kwAr1yrybVZi7WVfHq1/SvVHlIa5BhJrUeawF3kikW+/BtoFATBXs4NaBZJQNdBsK6DFjSRL6BaomNb/O1Wern6NOB9K24UyTkrziotcq6h3ruBwDVI8yTC4hI8vIAXf/95679Drfx8pRo2hnVu/ol8Fz1dq3F4r00wruQFdqgacl/g5cUST78o9TofcqUPJclhynviYlqxJ5zs52sVns42AMtv65UMACXJUS/+0NI5tRu2mCw5nqucALVR1ce65FTxpnamZQAoWSv1yhhNcjzxg7B2vwnUU/6FHesKtUBpoPy9euTIWJxtIb+0xNxp4AnWnOqT4iIYxHEI4duL+BSnaRi6PZV+qS0f1MuGyKvE1dbkOAuhcARBF/LQUpRFGFVrC3nRldsER/Ep5jWVL3219FTaEv7phNqeyZHqeMed6vI9OckTOTLywrxyC1dOhbiXBkdqmZPqZkOLHLmttgeplIXIQnJJBQJLBrGfyBHOe5hisUbNIyfKu5iOF1DrfzsuOXJD9uyV8TIZvpIhCfBCISXYeCZn5XGSMGQJFQSeKWZeD+SodXgdlxySIhQ6lGL/WgcoBf0s/n4iR/pCcBG6B3POadJPiZNaDHlccqQGKTYCcdMYWJoPuU/1TI50MspIRYV++nN7KtyMTM595lle7e3FiJWhyCdy5F7aww5lD2eQKEZJ1S2kBjmy1ttvBAHJK0KX1C16nskhleTsVjVSfVdQsdhcvc++BjmOj2JSQnovK1IW+9SHfDbkSJV5JUemG0VU/geKFQ85fwnFbSv1RU53cuSQa4Msu2UuKBfOdl5PbMyq/TPZnvZKjvxYIXMcZIrcRVshg2Kv9q368uFVQ75W5Mgi+ObHkEcvrSPx9m+vBAhdzWwHc2lrr+QYnvSBMPbcBWItciJ/enTFXSv1+mg4rk7W4o+foA05YDC0aFJd5OwvMqGCKrA1lasFy/LRveQId198kZ+fWS/NI1TP7OmQygmEUuHLH7e/TtekwDbkSFV7G6FYQrA7hgPCK8u0OD6QA81xnX2cP5wophH47bOWHlBlHmMPJ+vl4XQ+/W/59p3krJfL29Qg6TK8LK8QqwkvECZp67m7UCwswmXtEIOXiss76KFMQL0JpXY3DyJJooYdLA9m9pyJfKdzHjYT5Ks7lPt4MmG0it7ch3BkHmkvq06qfA68ukZ+DShJgsQOwiI/3+JtIx0f1wJEvZOgVv74E6AiSfzSSbDbmBl7I3I89QR2Xz2i0wZgyGII7MB+iLt3QQfBGfpkmPcphux09t7Ih1FNhZc5Vz+CjXuM2VTo2KN91n3L2qJro+2ufuCs0Pl4sPC9EiGGgJN35Ab5H1Zg/wyq0b1+9eEGS+usldFOQZ4IoHVu2vjnJ44JL9fhBpVFS58K/VYE6lXTcwHVPwE1+1RydAzVFeMeFD0acD9H0BSfyA7u61Thw+ctI3o85719+fQ8QEjeGzeSnU9yBnnSb59xcw4HxLUD9N+S9Pzmx3W2Bk8GaMDO9HovvQkIDYfpEW2+Tw+yjgB8HOxIDLbtIxVmMhC6z4eiRiJL50oPcLoe/EDP85bOcHIRCuEox3/5h8Tjw+yGDoGyB19gjnF2U4XzwQYqCXpnimRvQsIp7Jf5aMTUiPNVaicgO5i9KcC119vCmuygexYv3hexP95U+uKLL7744osvvvjiiy+++OILHfwHr3v5iF4ib9YAAAAASUVORK5CYII=;" vertex="1" parent="swMk-PQYHyOFZnCrI2o2-5">
          <mxGeometry x="191.62962962962965" y="15.600000000000023" width="122.91259259259259" height="77.03703703703702" as="geometry" />
        </mxCell>
      </root>
    </mxGraphModel>
  </diagram>
</mxfile>
